<?xml version="1.0" standalone="no"?>
<!DOCTYPE svg PUBLIC "-//W3C//DTD SVG 20010904//EN"
 "http://www.w3.org/TR/2001/REC-SVG-20010904/DTD/svg10.dtd">
<svg version="1.0" xmlns="http://www.w3.org/2000/svg"
 width="1626.000000pt" height="1626.000000pt" viewBox="0 0 1626.000000 1626.000000"
 preserveAspectRatio="xMidYMid meet">
<metadata>
Created by potrace 1.11, written by Peter Selinger 2001-2013
</metadata>
<g transform="translate(0.000000,1626.000000) scale(0.100000,-0.100000)"
fill="#000000" stroke="none">
<path d="M8487 16144 c-15 -15 -7 -53 13 -59 11 -3 20 -13 20 -21 0 -11 -16
-14 -73 -14 -41 0 -136 -3 -211 -7 -124 -6 -138 -8 -148 -27 -9 -16 -7 -22 11
-34 56 -38 2 -64 -159 -77 -89 -7 -150 -30 -150 -56 0 -10 7 -22 16 -27 9 -5
14 -18 12 -28 -2 -14 -16 -21 -53 -27 -28 -4 -63 -13 -80 -19 -16 -5 -52 -14
-79 -19 -27 -4 -53 -14 -58 -21 -15 -24 -8 -46 17 -52 14 -4 25 -13 25 -21 0
-16 -49 -45 -75 -45 -9 0 -33 -9 -55 -20 -22 -11 -50 -20 -62 -20 -13 -1 -36
-12 -53 -25 l-30 -25 29 -23 c35 -29 33 -61 -6 -65 -15 -2 -32 -10 -38 -18 -7
-8 -17 -14 -23 -14 -15 0 -115 -49 -122 -60 -7 -12 30 -50 50 -50 8 0 15 -8
15 -19 0 -12 -16 -26 -47 -41 -27 -12 -66 -32 -88 -46 -22 -13 -50 -29 -63
-36 -29 -15 -24 -27 21 -57 20 -13 37 -29 37 -35 0 -6 -26 -23 -58 -38 -31
-16 -65 -32 -74 -38 -10 -5 -25 -14 -35 -18 -9 -4 -23 -18 -31 -30 -13 -20
-12 -23 22 -43 20 -11 36 -28 36 -37 0 -16 -48 -49 -133 -93 -18 -9 -40 -26
-51 -38 -18 -20 -18 -21 18 -42 26 -15 36 -27 34 -42 -3 -19 -56 -56 -135 -92
-35 -16 -56 -45 -45 -62 4 -5 22 -18 40 -27 42 -22 38 -42 -13 -70 -63 -34
-119 -72 -134 -90 -12 -14 -11 -19 4 -36 10 -11 26 -22 36 -25 31 -10 21 -39
-22 -63 -23 -13 -54 -35 -69 -48 -15 -14 -35 -30 -45 -38 -27 -20 -13 -64 23
-68 18 -2 28 -9 30 -23 2 -18 -20 -38 -87 -80 -92 -56 -104 -91 -41 -111 64
-21 47 -54 -65 -129 -51 -33 -71 -58 -60 -75 2 -4 20 -15 40 -24 48 -23 45
-46 -12 -92 -115 -92 -127 -119 -63 -140 55 -18 53 -52 -7 -103 -26 -22 -53
-41 -59 -41 -7 0 -14 -7 -18 -15 -8 -22 -34 -18 -38 6 -2 12 -12 27 -22 33
-11 6 -49 29 -85 52 -37 22 -81 46 -98 53 -24 10 -33 20 -33 37 0 13 -2 24 -5
24 -19 0 -173 45 -190 55 -19 13 -109 49 -225 92 -51 20 -93 33 -246 83 -34
11 -81 22 -105 26 -24 4 -52 11 -63 16 -10 6 -53 10 -95 9 -65 -1 -79 2 -94
19 -13 15 -29 20 -66 20 -27 0 -62 5 -78 11 -70 27 -339 40 -530 24 -78 -6
-97 -5 -118 9 -15 10 -45 16 -79 16 -31 0 -73 7 -95 16 -23 9 -60 14 -92 12
-49 -3 -54 -5 -54 -27 0 -13 7 -27 15 -31 8 -4 29 -15 47 -24 17 -9 41 -16 53
-16 15 0 20 -5 18 -17 -3 -16 -16 -18 -133 -15 -72 2 -179 8 -239 13 -93 8
-112 7 -132 -6 -13 -8 -24 -21 -24 -28 0 -15 81 -57 108 -57 10 0 26 -6 37
-14 11 -7 36 -17 55 -21 19 -4 45 -13 57 -21 12 -8 33 -14 45 -14 13 0 33 -6
44 -14 11 -8 39 -19 62 -25 23 -7 42 -16 42 -21 0 -5 18 -13 40 -16 25 -4 40
-12 40 -21 0 -7 7 -16 15 -19 17 -7 21 -34 5 -34 -18 0 -11 -14 28 -57 40 -46
52 -52 52 -28 0 8 7 15 15 15 10 0 15 -10 15 -29 0 -23 5 -30 22 -33 13 -2 24
-11 26 -23 3 -11 13 -28 23 -38 10 -10 19 -24 19 -32 0 -7 15 -25 33 -39 17
-15 37 -31 44 -36 7 -6 24 -10 38 -10 14 0 33 -9 42 -20 10 -11 25 -20 34 -20
28 0 49 -11 49 -26 0 -10 13 -14 41 -14 39 0 41 -2 37 -25 -4 -21 3 -31 45
-62 28 -21 60 -37 71 -38 15 0 22 -9 28 -40 5 -22 15 -43 23 -48 8 -4 17 -24
21 -45 8 -46 37 -79 78 -88 17 -3 38 -12 46 -19 8 -7 32 -16 53 -19 21 -4 41
-14 44 -22 3 -7 15 -14 27 -14 47 0 66 -12 66 -40 0 -17 8 -33 21 -41 16 -11
22 -28 26 -79 8 -96 36 -140 98 -154 17 -4 37 -13 45 -20 8 -8 33 -16 54 -19
55 -9 74 -47 41 -81 -8 -8 -15 -18 -15 -23 0 -5 -18 -28 -41 -52 -37 -38 -40
-46 -35 -77 l7 -34 -67 0 c-36 0 -90 7 -118 15 -40 12 -92 15 -212 13 l-159
-3 -3 -37 -3 -38 -197 0 c-181 0 -200 -2 -231 -21 -31 -19 -32 -21 -17 -38 9
-10 16 -22 16 -28 0 -9 -123 -27 -300 -43 -47 -5 -86 -9 -87 -9 -2 -1 -3 -12
-3 -25 0 -18 8 -27 30 -35 16 -5 30 -17 30 -25 0 -13 -13 -16 -70 -16 -38 0
-105 -7 -147 -15 -43 -8 -98 -18 -123 -23 -54 -9 -67 -40 -25 -62 44 -24 30
-37 -47 -44 -40 -3 -91 -13 -113 -21 -22 -8 -60 -14 -86 -15 -25 0 -50 -5 -57
-12 -18 -18 -14 -46 8 -53 29 -9 26 -45 -4 -45 -13 0 -40 -7 -59 -15 -20 -8
-48 -15 -61 -15 -14 0 -40 -6 -58 -14 -18 -8 -45 -17 -61 -21 -39 -8 -38 -48
3 -65 43 -18 39 -40 -7 -40 -21 0 -51 -7 -67 -15 -16 -8 -47 -18 -70 -22 -56
-9 -126 -41 -126 -58 0 -7 12 -22 27 -33 32 -24 26 -52 -13 -52 -14 0 -38 -6
-52 -14 -26 -12 -54 -24 -130 -50 -39 -13 -52 -44 -26 -63 10 -7 26 -13 36
-13 30 0 22 -37 -10 -43 -29 -5 -72 -20 -142 -49 -69 -30 -75 -34 -78 -56 -3
-16 7 -25 44 -41 25 -12 52 -21 58 -21 6 0 28 -9 49 -20 20 -11 48 -20 61 -20
13 0 29 -7 36 -15 7 -8 27 -17 45 -21 19 -3 36 -12 39 -19 2 -7 23 -16 45 -20
31 -5 41 -11 41 -26 0 -11 15 -29 35 -41 39 -26 42 -35 20 -64 -21 -27 -19
-57 3 -50 9 2 53 6 97 8 l80 3 3 -37 c2 -26 10 -41 28 -52 35 -24 30 -44 -13
-52 -20 -4 -48 -13 -62 -20 -14 -8 -34 -14 -43 -14 -28 0 -118 -50 -118 -66 0
-9 14 -21 30 -27 30 -11 43 -47 18 -47 -7 -1 -31 -9 -53 -20 -22 -11 -47 -20
-55 -20 -8 0 -24 -7 -34 -15 -11 -8 -28 -15 -37 -15 -47 0 -67 -65 -23 -76 18
-5 24 -12 22 -27 -2 -11 -10 -23 -18 -27 -8 -4 -34 -16 -57 -28 -23 -12 -49
-22 -58 -22 -8 0 -34 -12 -57 -26 l-42 -27 37 -31 c20 -17 37 -35 37 -41 0 -5
-20 -18 -43 -29 -136 -60 -177 -86 -177 -110 0 -6 14 -19 30 -28 52 -29 39
-48 -66 -98 -103 -49 -129 -74 -98 -97 10 -7 26 -13 37 -13 13 0 18 -6 15 -22
-3 -20 -34 -44 -98 -75 -42 -20 -100 -66 -100 -80 0 -8 13 -20 30 -26 17 -7
30 -19 30 -28 0 -16 -80 -79 -100 -79 -17 0 -79 -45 -80 -58 0 -7 14 -15 30
-18 17 -4 30 -13 30 -20 0 -19 -36 -54 -55 -54 -8 0 -15 -4 -15 -9 0 -5 -12
-14 -27 -20 -109 -45 -130 -89 -52 -106 40 -9 38 -40 -3 -61 -31 -16 -87 -53
-98 -64 -3 -3 -17 -13 -32 -23 -38 -24 -37 -56 2 -63 24 -5 30 -12 30 -33 0
-25 -24 -45 -138 -112 -40 -23 -37 -60 5 -71 25 -7 33 -14 33 -31 0 -17 -17
-34 -67 -66 -72 -47 -113 -80 -113 -92 0 -4 16 -16 35 -28 55 -32 43 -59 -45
-103 -8 -4 -33 -20 -55 -36 -53 -37 -52 -61 3 -87 23 -11 42 -24 42 -30 -1 -9
-53 -47 -109 -80 -9 -5 -32 -22 -51 -37 l-34 -27 24 -25 c13 -15 33 -26 44
-26 30 0 48 -15 44 -35 -3 -18 -37 -43 -88 -66 -14 -6 -32 -15 -40 -20 -8 -5
-27 -14 -43 -20 -36 -15 -38 -55 -2 -69 38 -14 30 -35 -30 -82 -30 -23 -55
-46 -55 -50 0 -5 -9 -8 -20 -8 -17 0 -20 -7 -20 -40 0 -38 2 -40 30 -40 22 0
33 7 44 28 8 15 47 54 86 87 100 83 102 86 96 106 -3 11 -9 28 -12 39 -5 16
-1 21 25 26 17 4 36 13 42 20 6 8 18 14 26 14 8 0 33 10 56 22 23 12 49 24 57
28 8 4 16 18 18 31 2 19 -5 27 -36 42 -21 9 -49 17 -63 17 -33 0 -53 15 -46
33 6 15 67 59 129 92 l37 19 24 -22 c13 -12 33 -22 45 -22 29 0 30 -36 1 -45
-19 -6 -21 -12 -15 -51 6 -47 28 -96 55 -124 21 -22 75 -50 97 -50 14 0 16 -7
11 -42 -4 -34 -14 -49 -51 -80 -44 -38 -45 -40 -30 -63 9 -13 25 -25 37 -27
57 -8 0 -70 -130 -139 -41 -22 -26 -60 30 -74 34 -9 35 -28 3 -52 -14 -10 -52
-38 -85 -63 -73 -54 -80 -82 -26 -104 53 -23 45 -43 -45 -114 -44 -34 -80 -68
-80 -75 0 -15 51 -47 74 -47 26 0 32 -31 10 -47 -54 -39 -144 -129 -144 -143
0 -10 16 -23 40 -33 58 -22 53 -44 -31 -124 -79 -77 -82 -92 -18 -117 25 -10
39 -22 39 -33 0 -10 -29 -49 -65 -86 -36 -37 -65 -71 -65 -76 0 -15 45 -49 70
-53 45 -6 35 -34 -39 -112 -41 -43 -69 -81 -66 -88 7 -18 58 -48 80 -48 26 0
75 -29 75 -46 0 -8 -10 -19 -22 -25 -13 -5 -41 -21 -63 -34 -22 -14 -50 -29
-62 -34 -21 -10 -43 -40 -43 -59 0 -4 18 -18 40 -31 22 -12 40 -29 40 -38 0
-13 -65 -100 -96 -128 -34 -30 -19 -65 27 -65 21 0 28 6 34 27 6 27 35 66 109
147 43 47 45 63 10 76 -37 15 -28 48 21 76 22 13 47 23 56 24 9 0 22 7 29 15
7 9 29 15 51 15 32 0 39 -4 39 -19 0 -27 52 -73 102 -91 l43 -16 0 -97 c0 -53
3 -97 7 -97 8 0 15 8 59 65 79 104 342 377 454 470 32 28 66 57 75 65 25 25
131 103 195 145 103 67 109 70 165 99 30 15 88 46 129 67 133 71 344 142 471
159 30 4 79 13 109 20 39 9 122 11 300 7 234 -5 252 -6 366 -36 178 -46 341
-99 420 -136 96 -44 177 -75 198 -75 10 0 20 -7 23 -15 4 -8 18 -15 34 -15 39
0 60 -9 60 -26 0 -10 13 -14 46 -14 37 0 47 -4 51 -20 4 -16 14 -20 45 -20 35
0 40 -2 35 -20 -4 -16 6 -25 60 -51 36 -17 85 -45 110 -61 25 -17 89 -53 142
-81 53 -27 100 -53 106 -58 5 -5 15 -9 23 -9 7 0 34 -14 59 -31 24 -17 57 -34
71 -38 48 -13 39 -42 -25 -81 -32 -19 -72 -45 -91 -57 -47 -32 -75 -30 -89 7
-8 22 -18 30 -37 30 -13 0 -28 -4 -31 -10 -8 -13 -55 -13 -55 0 0 18 -47 10
-91 -15 -54 -31 -69 -31 -69 -2 -1 27 -22 57 -42 57 -8 0 -35 -11 -59 -25 -24
-13 -54 -29 -66 -34 -11 -5 -24 -14 -27 -19 -3 -6 -29 -22 -58 -37 -29 -15
-61 -34 -70 -42 -24 -21 -53 -12 -55 17 0 14 -1 30 -2 37 -1 6 -9 14 -19 17
-20 7 -56 -7 -131 -49 -61 -34 -87 -33 -94 5 -9 41 -40 40 -116 -5 -32 -19
-64 -35 -69 -35 -5 0 -15 -7 -22 -15 -7 -8 -28 -17 -47 -21 -28 -5 -37 -3 -49
15 -16 22 -43 28 -59 12 -19 -19 -107 -61 -127 -61 -12 0 -29 7 -38 15 -18 16
-47 4 -190 -79 -25 -14 -52 -29 -60 -33 -18 -8 -161 -91 -198 -115 -15 -10
-42 -24 -60 -32 -22 -11 -39 -29 -52 -58 -14 -32 -35 -54 -85 -87 -72 -48 -87
-67 -78 -99 5 -22 -31 -71 -53 -72 -6 0 -21 -11 -34 -25 -22 -23 -22 -27 -10
-65 7 -22 11 -41 9 -43 -2 -1 -18 -12 -36 -25 -18 -12 -36 -22 -41 -22 -15 0
-42 -36 -42 -56 0 -11 9 -25 20 -32 33 -20 24 -49 -24 -77 -54 -32 -63 -59
-30 -88 17 -15 24 -31 24 -58 0 -29 4 -38 21 -42 17 -5 20 -12 17 -48 -2 -31
-9 -46 -23 -54 -42 -21 -185 -120 -189 -130 -2 -6 7 -35 20 -63 21 -46 27 -52
54 -52 37 0 39 -19 8 -61 l-23 -31 21 -17 c12 -9 25 -32 29 -49 3 -18 11 -32
16 -32 5 0 9 -13 9 -30 0 -16 -4 -30 -10 -30 -5 0 -17 -11 -26 -25 -25 -38 -5
-55 62 -55 l54 0 0 -40 c0 -34 -4 -42 -30 -55 -64 -33 -60 -81 11 -109 40 -16
41 -18 33 -49 -11 -44 -6 -177 7 -194 6 -7 29 -13 50 -13 l39 0 0 -93 c0 -59
4 -97 12 -105 7 -7 33 -12 59 -12 38 0 51 -5 63 -22 9 -12 16 -31 16 -41 0
-10 13 -26 30 -35 26 -15 29 -22 27 -56 -2 -38 -1 -39 50 -64 29 -14 39 -40
25 -63 -11 -17 -11 -25 3 -46 13 -20 22 -23 42 -18 32 8 83 -37 83 -72 0 -13
12 -31 30 -45 23 -17 30 -30 30 -55 0 -48 56 -103 75 -73 8 13 71 13 96 0 10
-6 19 -17 19 -24 0 -15 42 -36 73 -36 12 0 33 -10 47 -23 16 -15 46 -26 85
-33 56 -8 62 -12 82 -49 13 -22 25 -47 28 -55 26 -66 58 -87 85 -55 17 20 93
20 110 0 7 -9 29 -15 52 -15 25 0 50 -8 65 -20 15 -12 41 -20 63 -20 21 0 43
-7 50 -15 7 -8 20 -15 30 -15 10 0 23 -7 30 -15 17 -21 26 -19 75 14 24 16 52
32 63 35 11 4 26 13 32 21 10 12 40 15 137 15 118 0 125 1 148 25 14 13 25 31
25 39 0 25 -30 46 -66 46 -52 0 -42 22 23 53 82 39 111 55 171 95 49 32 56 34
90 24 41 -12 89 -6 112 14 8 7 26 17 40 23 62 27 85 48 94 85 7 27 27 52 72
92 35 30 73 71 85 92 12 20 41 57 63 82 23 25 55 62 71 84 17 21 38 45 48 54
23 22 22 59 -3 72 -42 23 -27 45 139 203 39 37 61 66 61 81 0 15 17 34 52 61
101 77 178 156 178 184 0 30 56 101 139 177 30 27 62 56 70 64 9 8 28 24 42
35 39 31 52 60 37 84 -10 17 -7 27 22 68 18 26 58 72 89 101 31 29 85 81 120
114 35 34 85 79 112 100 27 21 49 44 49 51 0 23 221 227 310 287 32 22 116 82
189 137 35 26 76 55 91 65 15 9 34 30 41 48 12 28 17 31 44 25 51 -10 78 -8
87 9 5 9 16 16 24 16 9 0 27 9 41 20 14 11 31 20 38 20 20 0 42 33 49 73 7 38
8 39 42 32 90 -16 434 -35 664 -35 249 0 618 14 693 26 32 5 37 3 37 -14 0
-11 -20 -36 -47 -58 -59 -47 -93 -82 -93 -95 0 -6 -34 -43 -75 -82 -45 -44
-75 -81 -75 -93 0 -11 -21 -43 -47 -71 -27 -28 -65 -69 -85 -91 -21 -22 -38
-45 -38 -50 0 -6 -7 -17 -15 -25 -21 -22 -127 -157 -148 -189 -9 -15 -17 -41
-17 -57 0 -20 -12 -43 -40 -73 -22 -23 -40 -50 -40 -58 0 -9 -14 -31 -31 -49
-17 -19 -34 -42 -37 -52 -4 -10 -55 -67 -114 -127 -95 -98 -108 -114 -108
-145 0 -22 -6 -37 -15 -41 -11 -4 -15 -21 -15 -63 0 -54 -3 -61 -40 -101 -42
-45 -43 -48 -40 -100 1 -19 -5 -41 -13 -50 -8 -9 -23 -35 -32 -57 -10 -22 -45
-66 -77 -98 -55 -55 -58 -61 -52 -94 5 -26 2 -41 -13 -62 -11 -14 -24 -37 -28
-51 -4 -13 -13 -30 -19 -37 -70 -79 -86 -109 -86 -163 0 -31 -8 -64 -20 -87
-11 -21 -20 -45 -20 -54 0 -9 -6 -22 -14 -28 -8 -7 -17 -24 -21 -39 -4 -15
-12 -34 -19 -42 -74 -86 -107 -173 -71 -186 19 -8 20 -62 2 -83 -18 -22 -33
-81 -45 -176 -8 -63 -15 -83 -31 -94 -17 -11 -21 -24 -21 -71 0 -55 -2 -60
-36 -88 -47 -39 -45 -75 4 -80 27 -3 32 -7 32 -28 0 -14 -5 -34 -11 -45 -8
-16 -7 -25 5 -38 21 -23 20 -83 -2 -112 -36 -49 -43 -78 -26 -104 10 -15 26
-25 39 -25 37 0 55 -11 55 -32 0 -10 11 -29 24 -41 13 -13 27 -39 31 -59 6
-31 13 -39 40 -48 18 -6 36 -17 39 -25 3 -8 0 -55 -5 -106 -6 -50 -8 -97 -5
-105 3 -9 21 -14 48 -14 32 0 49 -6 70 -27 15 -15 28 -33 28 -41 0 -8 9 -25
20 -39 14 -18 20 -41 20 -74 0 -38 4 -51 19 -59 29 -15 71 -12 77 5 10 25 44
18 44 -8 0 -13 9 -32 20 -42 11 -10 20 -26 20 -36 0 -25 32 -40 69 -33 26 5
32 3 40 -17 5 -13 28 -41 51 -62 38 -35 45 -38 81 -32 35 6 40 4 48 -17 12
-31 29 -44 69 -53 17 -3 32 -10 32 -15 0 -4 14 -13 30 -19 17 -5 42 -24 56
-40 18 -21 35 -31 62 -33 33 -3 37 -6 40 -35 4 -38 30 -47 86 -32 44 12 92 4
105 -18 6 -12 18 -14 52 -9 24 4 65 8 91 9 25 1 50 5 54 10 4 4 26 7 49 7 26
0 48 6 55 15 16 19 49 19 56 0 9 -24 44 -39 57 -26 6 6 23 11 38 11 15 0 32 7
39 15 7 8 26 15 42 15 23 0 31 -6 39 -30 8 -22 17 -30 34 -30 13 0 26 4 29 9
3 4 32 21 63 37 32 15 66 34 75 42 13 11 34 13 93 7 41 -4 77 -11 81 -16 14
-24 103 10 234 90 19 11 49 28 67 36 17 8 34 19 38 25 9 15 46 12 66 -6 16
-15 22 -14 71 10 29 15 67 35 83 46 17 11 41 25 55 30 13 6 27 14 30 18 3 4
39 27 80 50 41 24 82 47 90 52 8 6 31 17 50 25 49 22 70 44 70 74 0 19 10 33
38 51 50 34 61 49 62 86 0 22 7 34 23 43 28 15 51 29 107 66 25 16 54 34 64
40 10 5 25 19 32 30 20 30 -6 65 -48 65 -32 0 -57 22 -58 51 0 13 50 59 64 59
11 0 80 51 92 68 10 15 9 22 -6 42 -17 23 -21 24 -52 12 -19 -6 -45 -12 -57
-12 -21 0 -22 3 -15 48 3 26 13 54 20 63 21 24 17 48 -11 61 -14 6 -25 17 -25
23 0 12 31 45 43 45 10 0 91 57 109 77 16 17 16 21 2 41 -11 16 -25 22 -55 22
-21 0 -39 5 -39 10 0 6 -9 19 -19 29 -15 15 -28 18 -60 14 -26 -4 -41 -2 -41
5 0 6 -9 14 -20 17 -30 10 -26 49 8 65 37 19 82 61 82 77 0 7 -11 20 -24 29
-23 15 -27 14 -69 -10 -59 -35 -67 -33 -67 13 0 48 8 71 25 71 6 0 22 9 35 20
13 11 29 20 36 20 7 0 22 12 33 26 16 20 18 30 10 46 -15 28 -38 33 -69 14
-36 -21 -60 -20 -87 3 -33 27 -28 43 17 69 42 24 53 55 28 80 -15 15 -54 16
-63 2 -15 -25 -34 -8 -37 33 -3 38 -6 42 -32 45 -32 4 -86 51 -86 76 0 8 12
21 27 28 37 18 50 42 34 62 -8 9 -21 16 -30 16 -51 0 -54 59 -6 96 41 31 45
60 10 76 -20 9 -34 9 -59 0 -45 -17 -50 -16 -85 17 -38 36 -39 45 -1 67 38 23
45 42 23 66 -13 15 -25 18 -55 13 -34 -6 -38 -4 -44 19 -3 14 -3 29 0 34 3 5
-1 15 -9 22 -21 18 -19 28 15 62 17 16 30 34 30 39 0 5 -18 20 -39 33 -22 14
-42 30 -46 36 -3 5 -15 10 -26 10 -24 0 -26 41 -3 61 12 10 14 23 9 61 -6 39
-3 53 10 68 16 18 16 20 -9 45 -32 32 -32 38 0 70 l27 27 -21 21 c-19 18 -25
19 -60 9 -55 -17 -68 -15 -96 12 -34 31 -32 47 7 71 25 16 34 30 40 65 15 87
17 82 -50 114 -67 31 -74 45 -46 85 13 19 14 28 5 42 -19 31 -14 54 18 77 37
27 38 54 5 72 -20 10 -28 11 -37 2 -18 -18 -56 -14 -68 7 -19 36 -12 69 18 86
36 20 72 51 72 63 0 5 -7 15 -15 22 -8 7 -15 23 -15 35 0 13 7 25 15 29 20 7
19 52 -1 60 -12 5 -14 14 -9 44 7 43 -4 58 -45 64 -37 5 -66 70 -49 110 16 39
-11 72 -53 63 -34 -8 -37 8 -11 53 16 28 16 32 -1 70 -18 39 -18 41 0 66 11
14 24 26 30 26 14 0 44 44 44 62 0 8 -8 25 -17 38 -17 23 -43 85 -43 103 0 4
19 7 43 7 23 1 60 5 82 10 22 4 69 14 105 20 154 27 312 64 395 92 17 5 48 14
70 20 22 5 54 16 72 24 17 8 39 14 48 14 9 0 31 6 48 14 18 8 51 20 74 26 23
6 45 15 48 20 3 6 18 10 33 10 15 0 36 6 47 14 11 7 31 17 45 21 14 4 50 18
80 32 99 45 245 115 260 124 8 5 24 13 35 18 12 5 27 16 34 25 7 9 17 16 21
16 7 0 80 41 125 70 22 14 109 68 150 93 63 37 196 126 230 153 51 40 143 104
150 104 3 0 62 40 131 90 68 49 127 90 130 90 3 0 10 5 17 10 40 34 116 90
121 90 3 0 31 17 63 39 144 97 291 185 352 211 13 6 43 23 65 38 62 41 272
142 296 142 7 0 24 6 38 14 66 35 335 111 447 127 33 5 76 13 95 19 57 17 372
23 505 10 66 -6 137 -11 157 -10 21 0 40 -5 45 -13 8 -14 147 -67 175 -67 9 0
18 -6 20 -12 3 -8 28 -13 73 -13 44 -1 70 -5 73 -13 2 -7 14 -12 26 -12 28 0
146 -61 204 -106 24 -18 48 -31 53 -28 12 7 11 118 -2 188 -8 47 -8 61 4 74
16 20 47 137 47 181 0 61 -49 235 -97 346 -32 75 -110 234 -136 280 -24 41
-61 100 -66 105 -4 3 -10 12 -16 21 -61 99 -269 323 -405 435 -83 69 -225 174
-234 174 -3 0 -27 15 -53 33 -49 33 -270 147 -285 147 -5 0 -43 16 -84 35 -41
19 -79 35 -85 35 -6 0 -25 7 -42 15 -18 8 -50 19 -72 24 -22 5 -69 18 -105 29
-45 13 -83 18 -122 14 -49 -4 -58 -2 -58 12 0 13 -11 16 -50 16 -43 0 -50 3
-50 20 0 14 7 20 21 20 16 0 19 4 14 20 -11 36 6 91 31 100 13 5 24 14 24 20
0 5 12 13 28 16 15 4 33 12 41 18 8 6 48 16 90 23 73 11 100 16 256 49 77 16
392 19 480 4 28 -4 133 -19 235 -34 219 -31 396 -62 464 -82 26 -8 55 -14 63
-14 14 0 75 -17 163 -46 25 -8 56 -14 69 -14 21 0 23 3 17 35 -4 19 -16 54
-27 79 -19 43 -19 47 -3 96 23 71 14 176 -21 260 -65 154 -329 482 -460 572
-22 15 -54 40 -70 55 -138 126 -319 237 -545 336 -19 8 -60 26 -90 40 -50 22
-150 57 -300 103 -30 10 -97 19 -148 22 -67 3 -95 8 -99 18 -3 9 -21 14 -47
14 -23 0 -46 4 -52 10 -15 15 -356 23 -365 8 -5 -8 -37 -12 -86 -12 -66 -1
-78 2 -81 17 -2 12 3 17 20 17 22 1 22 1 -4 16 -22 11 -28 22 -28 48 0 54 24
97 88 156 62 58 226 190 236 190 4 0 29 16 56 35 27 19 52 35 55 35 3 0 26 15
52 33 27 17 57 38 68 44 36 22 178 91 245 118 36 14 79 33 97 41 17 8 38 14
46 14 9 0 19 4 22 10 3 5 25 14 48 20 23 6 56 17 72 25 17 7 50 16 75 20 50 7
85 28 76 44 -4 6 -23 13 -44 17 -46 8 -112 45 -112 62 0 7 7 23 16 37 14 21
14 24 -2 33 -26 15 -10 42 25 42 29 0 61 29 61 56 0 18 -73 64 -102 64 -14 0
-31 7 -38 15 -7 8 -23 15 -35 15 -34 0 -55 10 -55 26 0 9 -12 14 -35 14 -24 0
-37 6 -45 20 -8 16 -21 20 -57 20 -26 0 -54 6 -62 14 -46 40 -491 99 -714 94
-109 -2 -139 0 -146 11 -6 9 -35 15 -87 18 -44 3 -97 11 -119 19 -25 9 -67 14
-110 12 -68 -3 -70 -4 -78 -33 l-9 -30 -128 -3 c-94 -2 -139 1 -171 12 -24 9
-71 16 -104 17 -33 0 -82 4 -109 7 -42 6 -51 11 -58 34 -8 22 -4 34 21 70 97
137 387 420 601 587 36 28 70 55 77 61 7 5 15 10 18 10 3 0 39 27 80 59 41 33
101 77 132 98 32 20 60 40 63 43 3 3 43 28 90 55 47 27 87 52 90 55 3 3 16 11
30 18 14 7 39 21 55 32 17 11 37 23 45 27 8 4 38 21 65 39 28 17 99 55 159 84
117 57 119 63 26 74 -75 9 -84 16 -76 57 11 54 7 112 -10 130 -9 10 -29 23
-45 29 -16 7 -29 20 -29 30 0 19 51 30 135 30 43 0 75 22 75 52 0 27 -52 40
-185 43 -682 19 -668 20 -681 -30 l-7 -26 -201 4 c-110 3 -230 10 -265 16 -74
13 -96 8 -112 -21 -9 -17 -8 -24 5 -33 9 -7 16 -18 16 -25 0 -13 -41 -13 -376
6 -106 6 -112 6 -123 -14 -27 -51 -30 -52 -232 -52 -213 0 -199 6 -202 -81
l-2 -54 -65 -2 c-89 -3 -280 -24 -308 -34 -17 -7 -22 -15 -20 -41 4 -46 -25
-57 -181 -64 -110 -6 -137 -11 -157 -27 -23 -18 -24 -21 -10 -36 9 -10 16 -24
16 -32 0 -29 -164 -57 -264 -45 -46 6 -56 11 -56 26 0 11 6 23 13 27 14 10 37
48 37 64 0 6 14 31 30 56 17 24 30 46 30 48 0 12 84 124 96 129 8 3 14 18 14
33 0 21 9 34 35 52 19 13 35 27 35 32 0 5 8 17 18 27 9 10 49 55 87 101 134
159 463 479 635 617 47 37 90 73 95 79 6 7 53 45 105 85 52 40 102 79 110 87
8 7 92 71 185 143 94 71 175 133 180 137 6 5 30 21 55 38 62 40 93 72 81 80
-6 3 -19 1 -30 -4 -10 -6 -45 -14 -77 -17 l-57 -7 6 56 c3 31 1 72 -4 90 -10
38 -59 89 -66 70 -3 -7 -13 -13 -23 -13 -13 0 -19 11 -24 40 -6 37 -9 40 -47
46 -28 5 -39 11 -37 22 4 19 79 42 138 42 25 0 73 9 105 20 33 12 66 23 73 25
10 4 10 10 2 25 -19 35 -44 42 -95 24 -26 -8 -93 -19 -150 -24 -57 -4 -109
-11 -116 -15 -7 -5 -50 -12 -96 -16 -101 -9 -127 -25 -117 -74 l6 -32 -189 -5
c-119 -4 -198 -11 -215 -19 -28 -12 -38 -44 -16 -51 6 -2 9 -12 5 -21 -4 -12
-18 -17 -43 -17 -21 0 -65 -5 -98 -10 -34 -6 -101 -14 -151 -18 -83 -6 -90 -9
-93 -29 -2 -14 4 -27 17 -35 39 -24 23 -35 -60 -42 -44 -4 -99 -14 -121 -22
-22 -8 -62 -14 -89 -14 -71 0 -104 -41 -51 -65 12 -5 22 -18 22 -27 0 -15 -9
-18 -54 -18 -30 0 -67 -5 -83 -11 -15 -6 -62 -15 -103 -20 -52 -6 -79 -14 -87
-26 -18 -24 -16 -32 12 -45 33 -15 32 -36 -2 -43 -16 -3 -44 -10 -63 -15 -19
-5 -57 -12 -83 -15 -63 -8 -137 -40 -137 -59 0 -8 12 -23 27 -34 37 -27 25
-52 -24 -52 -21 -1 -49 -7 -63 -15 -14 -8 -42 -14 -63 -15 -36 0 -109 -30
-121 -49 -3 -5 4 -21 15 -35 26 -33 18 -56 -18 -56 -15 0 -41 -7 -56 -15 -15
-8 -45 -17 -65 -21 -45 -8 -89 -29 -95 -46 -2 -7 7 -25 21 -40 30 -33 24 -58
-15 -58 -16 0 -37 -6 -48 -13 -11 -8 -36 -17 -55 -21 -42 -8 -120 -45 -120
-56 0 -10 13 -22 44 -44 25 -17 15 -46 -16 -46 -13 0 -32 -7 -42 -15 -11 -8
-28 -15 -39 -15 -10 0 -31 -7 -45 -15 -15 -8 -39 -19 -54 -25 -38 -13 -39 -57
-3 -66 27 -7 34 -34 13 -52 -7 -5 -32 -15 -55 -21 -23 -6 -45 -16 -48 -21 -3
-6 -15 -10 -26 -10 -27 0 -99 -49 -93 -64 3 -7 18 -20 34 -30 33 -19 40 -46
12 -46 -10 0 -27 -7 -39 -15 -12 -9 -39 -17 -60 -18 l-38 -2 -3 95 c-11 289
103 798 239 1074 27 55 49 105 49 112 0 7 3 14 8 16 4 2 23 35 42 73 19 39 46
88 60 110 14 22 27 45 30 50 20 39 53 85 61 85 5 0 9 5 9 11 0 6 14 29 32 51
17 22 41 54 53 72 59 87 359 391 482 488 93 74 121 103 109 115 -2 3 -23 7
-45 10 l-41 6 0 71 c0 57 -5 79 -25 115 -15 25 -25 59 -25 82 0 33 -4 40 -25
45 -13 3 -29 12 -35 19 -8 10 -96 13 -403 14 -216 1 -396 -1 -400 -5z"/>
</g>
</svg>
